<svg id="Group_6" data-name="Group 6" xmlns="http://www.w3.org/2000/svg" xmlns:xlink="http://www.w3.org/1999/xlink" width="285" height="50.989" viewBox="0 0 285 50.989">
  <defs>
    <clipPath id="clip-path">
      <rect id="Rectangle_14" data-name="Rectangle 14" width="285" height="50.989" fill="none"/>
    </clipPath>
  </defs>
  <g id="Group_5" data-name="Group 5" clip-path="url(#clip-path)">
    <path id="Path_64" data-name="Path 64" d="M70.491,19.285,83.461,5.76V.526H50.978V8.27h20.8l-13.9,14.675L57.856,27a53.411,53.411,0,0,1,8.42-.671c6.769,0,10.409,3.954,10.409,8.041,0,4.8-4.739,8.668-10.69,8.668A29.029,29.029,0,0,1,51.81,39.835c-1.42-.694-2.987-1.54-4.664-2.56l.3-.562A25.134,25.134,0,1,0,0,25.138,24.958,24.958,0,0,0,3.768,38.319a28.83,28.83,0,0,1,6.283-4.468,17.242,17.242,0,0,1-2.374-8.713A17.461,17.461,0,1,1,40.468,33.5a31.455,31.455,0,0,0-13.2-3.1c-3.756-.058-13.338.886-21.607,10.623a25.267,25.267,0,0,0,5.565,5.054h0a25.032,25.032,0,0,0,28.946-.832,32.331,32.331,0,0,0-7.125-4.583A17.192,17.192,0,0,1,25.132,42.6a17.379,17.379,0,0,1-7.789-1.853,18.75,18.75,0,0,1,9.821-2.833h.178c4.4,0,9.262,1.642,14.455,4.881a66.472,66.472,0,0,0,7.34,4h0c.051.024.1.045.151.069l.093.042a37.117,37.117,0,0,0,16.834,4.079c13.486,0,19.146-7.263,19.146-15.868a15.71,15.71,0,0,0-14.87-15.835" transform="translate(0 0.001)" fill="#fc7800"/>
    <path id="Path_65" data-name="Path 65" d="M282.445,19.657V7.5l-4.732,9.05h-1.939L271.041,7.5V19.657h-3.569V1.3H271.3l5.431,10.447L282.212,1.3h3.8v18.36Z" transform="translate(-172.534 -0.836)" fill="#00243b"/>
    <path id="Path_66" data-name="Path 66" d="M333.419,1.3h3.155l6.982,18.36h-3.672l-1.707-4.577h-6.413l-1.681,4.577h-3.672Zm4.112,11.275L335,5.356l-2.638,7.215Z" transform="translate(-210.553 -0.836)" fill="#00243b"/>
    <rect id="Rectangle_13" data-name="Rectangle 13" width="3.569" height="18.36" transform="translate(135.382 0.46)" fill="#00243b"/>
    <path id="Path_67" data-name="Path 67" d="M407.607,7.891V19.657h-3.569V1.3h2.767l9.568,12.05V1.323h3.568V19.657h-2.9Z" transform="translate(-260.627 -0.836)" fill="#00243b"/>
    <path id="Path_68" data-name="Path 68" d="M471.142,4.425h-5.87V19.656h-3.543V4.425h-5.87V1.3h15.283Z" transform="translate(-294.054 -0.836)" fill="#00243b"/>
    <path id="Path_69" data-name="Path 69" d="M518.68,16.528v3.129H505.931V1.3h12.516V4.425H509.5V8.847h7.732v2.9H509.5v4.784Z" transform="translate(-326.353 -0.836)" fill="#00243b"/>
    <path id="Path_70" data-name="Path 70" d="M555.5,7.891V19.657h-3.568V1.3H554.7l9.568,12.05V1.323h3.568V19.657h-2.9Z" transform="translate(-356.026 -0.836)" fill="#00243b"/>
    <path id="Path_71" data-name="Path 71" d="M610.446,1.3H613.6l6.982,18.36H616.91L615.2,15.079h-6.413l-1.681,4.577h-3.672Zm4.111,11.275-2.534-7.215-2.637,7.215Z" transform="translate(-389.251 -0.836)" fill="#00243b"/>
    <path id="Path_72" data-name="Path 72" d="M662.02,7.891V19.657h-3.568V1.3h2.767l9.568,12.05V1.323h3.568V19.657h-2.9Z" transform="translate(-424.738 -0.836)" fill="#00243b"/>
    <path id="Path_73" data-name="Path 73" d="M712.611,10.159a9.517,9.517,0,0,1,.607-3.323,8.914,8.914,0,0,1,4.616-5.029,8.785,8.785,0,0,1,3.827-.8,8.352,8.352,0,0,1,4.383,1.112,7.113,7.113,0,0,1,2.755,2.9L726.058,6.9a4.705,4.705,0,0,0-.879-1.306,4.41,4.41,0,0,0-1.112-.84,4.981,4.981,0,0,0-1.241-.453,5.892,5.892,0,0,0-1.267-.142,4.812,4.812,0,0,0-2.34.543,5.14,5.14,0,0,0-1.655,1.409,6.229,6.229,0,0,0-1,1.966,7.442,7.442,0,0,0-.336,2.185,7.126,7.126,0,0,0,.388,2.34,6.211,6.211,0,0,0,1.1,1.978,5.488,5.488,0,0,0,1.707,1.371,4.663,4.663,0,0,0,2.185.517,5.746,5.746,0,0,0,1.293-.155,4.842,4.842,0,0,0,2.4-1.357,4.008,4.008,0,0,0,.827-1.28l2.922,1.681A5.524,5.524,0,0,1,727.8,17.18a8.063,8.063,0,0,1-1.836,1.331,9.392,9.392,0,0,1-2.185.828,9.6,9.6,0,0,1-2.276.284,7.823,7.823,0,0,1-3.594-.827,9.343,9.343,0,0,1-2.806-2.159,10,10,0,0,1-1.836-3.026,9.445,9.445,0,0,1-.659-3.452" transform="translate(-459.673 -0.648)" fill="#00243b"/>
    <path id="Path_74" data-name="Path 74" d="M779.773,16.528v3.129H767.024V1.3H779.54V4.425h-8.947V8.847h7.732v2.9h-7.732v4.784Z" transform="translate(-494.773 -0.836)" fill="#00243b"/>
    <path id="Path_75" data-name="Path 75" d="M279.887,80.378a5.884,5.884,0,0,0-.87-.648,10.6,10.6,0,0,0-1.535-.8,13.366,13.366,0,0,0-1.962-.665,8.571,8.571,0,0,0-2.148-.273,4.819,4.819,0,0,0-2.9.716,2.37,2.37,0,0,0-.956,2.013,2.068,2.068,0,0,0,.358,1.245,3.085,3.085,0,0,0,1.04.87,8.737,8.737,0,0,0,1.723.682q1.04.307,2.4.648,1.773.478,3.223,1.023a8.743,8.743,0,0,1,2.456,1.365,5.632,5.632,0,0,1,1.552,1.961,6.511,6.511,0,0,1,.546,2.814,7.013,7.013,0,0,1-.733,3.326,6.16,6.16,0,0,1-1.978,2.234,8.592,8.592,0,0,1-2.865,1.245,14.416,14.416,0,0,1-3.394.392,18.238,18.238,0,0,1-5.39-.818,16.626,16.626,0,0,1-4.775-2.32l2.081-4.059a6.513,6.513,0,0,0,1.109.8,16.755,16.755,0,0,0,1.893.989,14.674,14.674,0,0,0,2.421.836,10.941,10.941,0,0,0,2.729.341q3.889,0,3.889-2.49a2.044,2.044,0,0,0-.443-1.33,3.77,3.77,0,0,0-1.262-.955,12.128,12.128,0,0,0-1.979-.751q-1.16-.34-2.592-.75a22.033,22.033,0,0,1-3.019-1.041,7.938,7.938,0,0,1-2.132-1.33,4.979,4.979,0,0,1-1.279-1.774,6.139,6.139,0,0,1-.426-2.4,7.519,7.519,0,0,1,.683-3.275,6.614,6.614,0,0,1,1.893-2.388,8.587,8.587,0,0,1,2.814-1.45,11.641,11.641,0,0,1,3.445-.494,13.367,13.367,0,0,1,4.707.8,17.538,17.538,0,0,1,3.752,1.893Z" transform="translate(-170.091 -47.646)" fill="#00243b"/>
    <path id="Path_76" data-name="Path 76" d="M336.79,98.423a11,11,0,0,1-4.827-1.04,11.848,11.848,0,0,1-3.718-2.763,12.811,12.811,0,0,1-3.258-8.477,12.171,12.171,0,0,1,.9-4.639,12.8,12.8,0,0,1,2.49-3.923,11.893,11.893,0,0,1,3.769-2.712,11.2,11.2,0,0,1,4.741-1.006,10.635,10.635,0,0,1,4.792,1.075,11.97,11.97,0,0,1,3.7,2.814,12.962,12.962,0,0,1,2.388,3.957,12.461,12.461,0,0,1,.853,4.5,12.245,12.245,0,0,1-.887,4.622,12.562,12.562,0,0,1-2.456,3.888,11.8,11.8,0,0,1-3.752,2.7,11.186,11.186,0,0,1-4.742,1.006m-7.027-12.28a9.735,9.735,0,0,0,.478,3.036,8.1,8.1,0,0,0,1.381,2.592,6.861,6.861,0,0,0,2.217,1.808,6.871,6.871,0,0,0,6-.017A6.877,6.877,0,0,0,342.06,91.7a8.289,8.289,0,0,0,1.364-2.61,9.687,9.687,0,0,0,.46-2.951,9.446,9.446,0,0,0-.495-3.035,8.383,8.383,0,0,0-1.4-2.593,6.682,6.682,0,0,0-2.217-1.791,6.909,6.909,0,0,0-5.987.034,6.737,6.737,0,0,0-2.217,1.842,8.286,8.286,0,0,0-1.347,2.593,9.7,9.7,0,0,0-.46,2.951" transform="translate(-209.635 -47.646)" fill="#00243b"/>
    <path id="Path_77" data-name="Path 77" d="M404.022,98.562V74.343h16.271v4.128H408.73v6.242h9.619v3.821H408.73V98.562Z" transform="translate(-260.616 -47.956)" fill="#00243b"/>
    <path id="Path_78" data-name="Path 78" d="M476.942,78.471H469.2V98.562h-4.672V78.471h-7.743V74.343h20.16Z" transform="translate(-294.649 -47.956)" fill="#00243b"/>
    <path id="Path_79" data-name="Path 79" d="M530.322,74.412h4.332l2.728,8.016,2.729-8.016h4.366l-4.127,11.018,3.07,7.743,6.856-18.829h5.117l-9.857,24.219h-3.957l-4.2-10.165-4.2,10.165H529.23l-9.79-24.219h5.048l6.891,18.829,3-7.743Z" transform="translate(-335.068 -47.955)" fill="#00243b"/>
    <path id="Path_80" data-name="Path 80" d="M626.3,74.343h4.161l9.21,24.219h-4.844l-2.251-6.038h-8.459L621.9,98.562h-4.843Zm5.423,14.873L628.385,79.7l-3.479,9.517Z" transform="translate(-398.038 -47.955)" fill="#00243b"/>
    <path id="Path_81" data-name="Path 81" d="M689.629,98.562V74.343h10.71a6.881,6.881,0,0,1,3.087.7,7.981,7.981,0,0,1,2.439,1.842,8.7,8.7,0,0,1,1.6,2.593,7.8,7.8,0,0,1,.58,2.917,8.055,8.055,0,0,1-1.177,4.281,6.751,6.751,0,0,1-3.189,2.78l5.526,9.108h-5.288l-4.945-8.119h-4.639v8.119Zm4.707-12.246h5.9a2.487,2.487,0,0,0,1.21-.307,3.088,3.088,0,0,0,.973-.836,4.178,4.178,0,0,0,.648-1.245,4.841,4.841,0,0,0,.239-1.535,4.379,4.379,0,0,0-.273-1.569,4.087,4.087,0,0,0-.733-1.245,3.326,3.326,0,0,0-1.057-.819,2.755,2.755,0,0,0-1.211-.29h-5.7Z" transform="translate(-444.849 -47.955)" fill="#00243b"/>
    <path id="Path_82" data-name="Path 82" d="M772.38,94.435v4.127H755.563V74.343h16.51v4.128h-11.8V84.3h10.2v3.82h-10.2v6.311Z" transform="translate(-487.38 -47.955)" fill="#00243b"/>
  </g>
</svg>
